<svg width="1440" height="900" viewBox="0 0 1440 900" fill="none" xmlns="http://www.w3.org/2000/svg">
  <defs>
    <linearGradient id="bg" x1="0" y1="0" x2="1440" y2="900" gradientUnits="userSpaceOnUse">
      <stop stop-color="#0A47FF" />
      <stop offset="1" stop-color="#031A5A" />
    </linearGradient>
    <linearGradient id="panel" x1="0" y1="0" x2="0" y2="1" gradientUnits="objectBoundingBox">
      <stop stop-color="#F6F8FF" />
      <stop offset="1" stop-color="#EEF1FF" />
    </linearGradient>
    <linearGradient id="accent" x1="0" y1="0" x2="1" y2="1">
      <stop stop-color="#4FD1C5" />
      <stop offset="1" stop-color="#2563EB" />
    </linearGradient>
    <filter id="shadow" x="-10" y="-10" width="200%" height="200%" color-interpolation-filters="sRGB">
      <feOffset dy="18" input="SourceAlpha" />
      <feGaussianBlur stdDeviation="26" />
      <feColorMatrix type="matrix" values="0 0 0 0 0 0 0 0 0 0.2 0 0 0 0 0.45 0 0 0 0.18 0" />
      <feBlend in="SourceGraphic" />
    </filter>
  </defs>
  <rect width="1440" height="900" fill="url(#bg)" />
  <g transform="translate(100 120)" fill="white" fill-opacity="0.08">
    <rect x="100" y="0" width="220" height="40" rx="20" />
    <rect x="360" y="0" width="180" height="40" rx="20" />
    <rect x="570" y="0" width="200" height="40" rx="20" />
    <rect x="820" y="0" width="160" height="40" rx="20" />
  </g>
  <g transform="translate(80 180)">
    <text x="0" y="0" fill="white" font-family="Inter, system-ui" font-size="15" opacity="0.8">Conheça o Kontaki</text>
    <text x="0" y="70" fill="white" font-family="Inter, system-ui" font-size="52" font-weight="700">Feedback inteligente para decisões estratégicas</text>
    <text x="0" y="140" fill="white" font-family="Inter, system-ui" font-size="20" opacity="0.85">Centralize pesquisas, acompanhe clientes e converse com seu time em um só lugar.</text>
    <g transform="translate(0 180)">
      <rect width="210" height="58" rx="14" fill="#3B82F6" />
      <text x="28" y="37" fill="white" font-family="Inter, system-ui" font-size="18" font-weight="600">Testar gratuitamente</text>
    </g>
    <g transform="translate(240 180)">
      <rect width="210" height="58" rx="14" fill="transparent" stroke="white" stroke-width="2" opacity="0.7" />
      <text x="35" y="37" fill="white" font-family="Inter, system-ui" font-size="18" font-weight="600" opacity="0.9">Falar com o time</text>
    </g>
  </g>
  <g transform="translate(660 190)" filter="url(#shadow)">
    <rect width="620" height="470" rx="26" fill="url(#panel)" />
    <rect x="24" y="24" width="572" height="70" rx="12" fill="white" />
    <rect x="24" y="118" width="330" height="270" rx="16" fill="white" />
    <rect x="380" y="118" width="216" height="270" rx="16" fill="white" />
    <rect x="24" y="408" width="330" height="42" rx="10" fill="#0EA5E9" opacity="0.14" />
    <rect x="380" y="408" width="216" height="42" rx="10" fill="#22C55E" opacity="0.12" />
    <text x="44" y="66" fill="#0F172A" font-family="Inter, system-ui" font-size="18" font-weight="700">Painel de pesquisas em tempo real</text>
    <text x="44" y="148" fill="#0F172A" font-family="Inter, system-ui" font-size="16" font-weight="700">Fila de atendimentos</text>
    <text x="44" y="180" fill="#1E293B" font-family="Inter, system-ui" font-size="14" opacity="0.8">Organize respostas, tags e status das interações com clientes.</text>
    <text x="44" y="220" fill="#1E293B" font-family="Inter, system-ui" font-size="14" opacity="0.8">Atribua responsáveis e acompanhe o SLA em um único lugar.</text>
    <text x="44" y="320" fill="#0EA5E9" font-family="Inter, system-ui" font-size="13" font-weight="700">Atualizado há poucos segundos</text>
    <rect x="400" y="144" width="172" height="80" rx="14" fill="url(#accent)" />
    <text x="420" y="178" fill="white" font-family="Inter, system-ui" font-size="14" font-weight="700">Assistente de dados</text>
    <text x="420" y="205" fill="white" font-family="Inter, system-ui" font-size="13" opacity="0.9">Sugestões de melhorias e alertas</text>
    <rect x="400" y="252" width="172" height="116" rx="14" fill="#1E293B" opacity="0.85" />
    <text x="420" y="284" fill="#F8FAFC" font-family="Inter, system-ui" font-size="14" font-weight="700">Status dos canais</text>
    <text x="420" y="312" fill="#E2E8F0" font-family="Inter, system-ui" font-size="13" opacity="0.9">WhatsApp • E-mail • Pesquisa web</text>
    <text x="420" y="337" fill="#34D399" font-family="Inter, system-ui" font-size="13" font-weight="700">Tudo operando</text>
  </g>
  <g transform="translate(940 668)">
    <rect width="230" height="70" rx="16" fill="white" fill-opacity="0.16" stroke="white" stroke-opacity="0.2" />
    <circle cx="44" cy="35" r="14" fill="#38BDF8" />
    <text x="72" y="41" fill="white" font-family="Inter, system-ui" font-size="16" font-weight="700">Equipe online</text>
  </g>
  <g transform="translate(108 640)" fill="white" fill-opacity="0.14">
    <rect x="0" y="0" width="320" height="10" rx="5" />
    <rect x="0" y="26" width="260" height="10" rx="5" />
    <rect x="0" y="52" width="190" height="10" rx="5" />
  </g>
</svg>
